<?xml version="1.0" standalone="no"?><svg xmlns="http://www.w3.org/2000/svg" viewBox="0 0 1440 320"><path fill="#ffd700" fill-opacity="1" d="M0,32L15,80C30,128,60,224,90,266.7C120,309,150,299,180,272C210,245,240,203,270,160C300,117,330,75,360,53.3C390,32,420,32,450,58.7C480,85,510,139,540,154.7C570,171,600,149,630,128C660,107,690,85,720,90.7C750,96,780,128,810,154.7C840,181,870,203,900,208C930,213,960,203,990,192C1020,181,1050,171,1080,165.3C1110,160,1140,160,1170,160C1200,160,1230,160,1260,170.7C1290,181,1320,203,1350,213.3C1380,224,1410,224,1425,224L1440,224L1440,0L1425,0C1410,0,1380,0,1350,0C1320,0,1290,0,1260,0C1230,0,1200,0,1170,0C1140,0,1110,0,1080,0C1050,0,1020,0,990,0C960,0,930,0,900,0C870,0,840,0,810,0C780,0,750,0,720,0C690,0,660,0,630,0C600,0,570,0,540,0C510,0,480,0,450,0C420,0,390,0,360,0C330,0,300,0,270,0C240,0,210,0,180,0C150,0,120,0,90,0C60,0,30,0,15,0L0,0Z"></path></svg>